<?xml version="1.0" encoding="UTF-8" standalone="no"?>
<!-- Created with Inkscape (http://www.inkscape.org/) -->
<svg
   xmlns:dc="http://purl.org/dc/elements/1.1/"
   xmlns:cc="http://creativecommons.org/ns#"
   xmlns:rdf="http://www.w3.org/1999/02/22-rdf-syntax-ns#"
   xmlns:svg="http://www.w3.org/2000/svg"
   xmlns="http://www.w3.org/2000/svg"
   xmlns:sodipodi="http://sodipodi.sourceforge.net/DTD/sodipodi-0.dtd"
   xmlns:inkscape="http://www.inkscape.org/namespaces/inkscape"
   width="694.27484"
   height="501.61478"
   id="svg2679"
   sodipodi:version="0.32"
   inkscape:version="0.46"
   version="1.0"
   sodipodi:docname="22.svg"
   inkscape:output_extension="org.inkscape.output.svg.inkscape">
  <defs
     id="defs2681">
    <inkscape:perspective
       sodipodi:type="inkscape:persp3d"
       inkscape:vp_x="0 : 526.18109 : 1"
       inkscape:vp_y="0 : 1000 : 0"
       inkscape:vp_z="744.09448 : 526.18109 : 1"
       inkscape:persp3d-origin="372.04724 : 350.78739 : 1"
       id="perspective2687" />
  </defs>
  <sodipodi:namedview
     id="base"
     pagecolor="#ffffff"
     bordercolor="#666666"
     borderopacity="1.0"
     inkscape:pageopacity="0.0"
     inkscape:pageshadow="2"
     inkscape:zoom="0.35"
     inkscape:cx="375"
     inkscape:cy="520"
     inkscape:document-units="mm"
     inkscape:current-layer="layer1"
     showgrid="false"
     inkscape:window-width="640"
     inkscape:window-height="669"
     inkscape:window-x="1047"
     inkscape:window-y="23" />
  <metadata
     id="metadata2684">
    <rdf:RDF>
      <cc:Work
         rdf:about="">
        <dc:format>image/svg+xml</dc:format>
        <dc:type
           rdf:resource="http://purl.org/dc/dcmitype/StillImage" />
      </cc:Work>
    </rdf:RDF>
  </metadata>
  <g
     inkscape:label="Layer 1"
     inkscape:groupmode="layer"
     id="layer1"
     transform="translate(-30.00544,-10.126214)">
    <g
       transform="matrix(720,0,0,720,23.18646,-83.583689)"
       id="g2519">
      <rect
         transform="matrix(0,1,-1,0,0,0)"
         id="rect2668"
         style="fill:#ffffff;stroke:none"
         height="0.95670992"
         width="0.69264072"
         y="-0.96996552"
         x="0.13419913" />
      <g
         id="g2670"
         style="font-style:normal;font-variant:normal;font-weight:normal;font-stretch:normal;letter-spacing:normal;word-spacing:normal;text-anchor:start;fill:none;fill-opacity:1;stroke:#000000;stroke-linecap:butt;stroke-linejoin:miter;stroke-miterlimit:10.43299961;stroke-dasharray:none;stroke-dashoffset:0;stroke-opacity:1"
         xml:space="preserve"
         transform="matrix(0,1.4880857e-3,1.4880857e-3,0,-9.7674341e-2,2.3007496e-2)">
<line
   id="line2672"
   style="stroke:#4c4c4c;stroke-width:0.6552;stroke-linecap:round"
   y2="655.13"
   x2="486.09"
   y1="643.90002"
   x1="485.98999" />
<line
   id="line2674"
   style="stroke:#4c4c4c;stroke-width:0.6552;stroke-linecap:round"
   y2="643.90002"
   x2="485.98999"
   y1="633.40997"
   x1="485.98999" />
<line
   id="line2676"
   style="stroke:#4c4c4c;stroke-width:0.6552;stroke-linecap:round"
   y2="633.40997"
   x2="485.98999"
   y1="622.46002"
   x1="485.89999" />
<line
   id="line2678"
   style="stroke:#4c4c4c;stroke-width:0.6552;stroke-linecap:round"
   y2="622.46002"
   x2="485.89999"
   y1="612.15997"
   x1="485.79999" />
<line
   id="line2680"
   style="stroke:#4c4c4c;stroke-width:0.6552;stroke-linecap:round"
   y2="612.15997"
   x2="485.79999"
   y1="600.65002"
   x1="485.70999" />
<line
   id="line2682"
   style="stroke:#4c4c4c;stroke-width:0.6552;stroke-linecap:round"
   y2="600.65002"
   x2="485.70999"
   y1="590.64001"
   x1="485.62" />
<line
   id="line2684"
   style="stroke:#4c4c4c;stroke-width:0.6552;stroke-linecap:round"
   y2="590.64001"
   x2="485.62"
   y1="579.78003"
   x1="485.34" />
<line
   id="line2686"
   style="stroke:#4c4c4c;stroke-width:0.6552;stroke-linecap:round"
   y2="579.78003"
   x2="485.34"
   y1="568.72998"
   x1="485.06" />
<line
   id="line2688"
   style="stroke:#4c4c4c;stroke-width:0.6552;stroke-linecap:round"
   y2="568.72998"
   x2="485.06"
   y1="558.07001"
   x1="484.67999" />
<line
   id="line2690"
   style="stroke:#4c4c4c;stroke-width:0.6552;stroke-linecap:round"
   y2="558.07001"
   x2="484.67999"
   y1="546.83002"
   x1="484.12" />
<line
   id="line2692"
   style="stroke:#4c4c4c;stroke-width:0.6552;stroke-linecap:round"
   y2="546.83002"
   x2="484.12"
   y1="536.15997"
   x1="483.37" />
<line
   id="line2694"
   style="stroke:#4c4c4c;stroke-width:0.6552;stroke-linecap:round"
   y2="536.15997"
   x2="483.37"
   y1="525.29999"
   x1="482.44" />
<line
   id="line2696"
   style="stroke:#4c4c4c;stroke-width:0.6552;stroke-linecap:round"
   y2="525.29999"
   x2="482.44"
   y1="514.82001"
   x1="481.22" />
<line
   id="line2698"
   style="stroke:#4c4c4c;stroke-width:0.6552;stroke-linecap:round"
   y2="514.82001"
   x2="481.22"
   y1="503.78"
   x1="479.54001" />
<line
   id="line2700"
   style="stroke:#4c4c4c;stroke-width:0.6552;stroke-linecap:round"
   y2="503.78"
   x2="479.54001"
   y1="493.67001"
   x1="477.48001" />
<line
   id="line2702"
   style="stroke:#4c4c4c;stroke-width:0.6552;stroke-linecap:round"
   y2="493.67001"
   x2="477.48001"
   y1="482.44"
   x1="474.67001" />
<line
   id="line2704"
   style="stroke:#4c4c4c;stroke-width:0.6552;stroke-linecap:round"
   y2="482.44"
   x2="474.67001"
   y1="471.95001"
   x1="471.29999" />
<line
   id="line2706"
   style="stroke:#4c4c4c;stroke-width:0.6552;stroke-linecap:round"
   y2="471.95001"
   x2="471.29999"
   y1="460.25"
   x1="466.62" />
<line
   id="line2708"
   style="stroke:#4c4c4c;stroke-width:0.6552;stroke-linecap:round"
   y2="460.25"
   x2="466.62"
   y1="449.76999"
   x1="461.28" />
<line
   id="line2710"
   style="stroke:#4c4c4c;stroke-width:0.6552;stroke-linecap:round"
   y2="449.76999"
   x2="461.28"
   y1="438.91"
   x1="454.45001" />
<line
   id="line2712"
   style="stroke:#4c4c4c;stroke-width:0.6552;stroke-linecap:round"
   y2="438.91"
   x2="454.45001"
   y1="427.76999"
   x1="445.92999" />
<line
   id="line2714"
   style="stroke:#4c4c4c;stroke-width:0.6552;stroke-linecap:round"
   y2="427.76999"
   x2="445.92999"
   y1="417.10001"
   x1="435.92001" />
<line
   id="line2716"
   style="stroke:#4c4c4c;stroke-width:0.6552;stroke-linecap:round"
   y2="417.10001"
   x2="435.92001"
   y1="407.09"
   x1="424.95999" />
<line
   id="line2718"
   style="stroke:#4c4c4c;stroke-width:0.6552;stroke-linecap:round"
   y2="407.09"
   x2="424.95999"
   y1="395.67001"
   x1="410.17999" />
<line
   id="line2720"
   style="stroke:#4c4c4c;stroke-width:0.6552;stroke-linecap:round"
   y2="395.67001"
   x2="410.17999"
   y1="384.72"
   x1="393.60999" />
<line
   id="line2722"
   style="stroke:#4c4c4c;stroke-width:0.6552;stroke-linecap:round"
   y2="384.72"
   x2="393.60999"
   y1="374.51999"
   x1="376.10999" />
<line
   id="line2724"
   style="stroke:#4c4c4c;stroke-width:0.6552;stroke-linecap:round"
   y2="374.51999"
   x2="376.10999"
   y1="363.38"
   x1="354.67001" />
<line
   id="line2726"
   style="stroke:#4c4c4c;stroke-width:0.6552;stroke-linecap:round"
   y2="363.38"
   x2="354.67001"
   y1="352.70999"
   x1="331.92999" />
<line
   id="line2728"
   style="stroke:#4c4c4c;stroke-width:0.6552;stroke-linecap:round"
   y2="352.70999"
   x2="331.92999"
   y1="341.57001"
   x1="306.09" />
<line
   id="line2730"
   style="stroke:#4c4c4c;stroke-width:0.6552;stroke-linecap:round"
   y2="341.57001"
   x2="306.09"
   y1="331.37"
   x1="281.20001" />
<line
   id="line2732"
   style="stroke:#4c4c4c;stroke-width:0.6552;stroke-linecap:round"
   y2="331.37"
   x2="281.20001"
   y1="319.85001"
   x1="252.27" />
<line
   id="line2734"
   style="stroke:#4c4c4c;stroke-width:0.6552;stroke-linecap:round"
   y2="319.85001"
   x2="252.27"
   y1="309.92999"
   x1="227.28" />
<line
   id="line2736"
   style="stroke:#4c4c4c;stroke-width:0.6552;stroke-linecap:round"
   y2="309.92999"
   x2="227.28"
   y1="298.23001"
   x1="198.92" />
<line
   id="line2738"
   style="stroke:#4c4c4c;stroke-width:0.6552;stroke-linecap:round"
   y2="298.23001"
   x2="198.92"
   y1="288.39999"
   x1="177.02" />
<line
   id="line2740"
   style="stroke:#4c4c4c;stroke-width:0.6552;stroke-linecap:round"
   y2="288.39999"
   x2="177.02"
   y1="277.64001"
   x1="156.14999" />
<line
   id="line2742"
   style="stroke:#4c4c4c;stroke-width:0.6552;stroke-linecap:round"
   y2="277.64001"
   x2="156.14999"
   y1="266.41"
   x1="139.39" />
<line
   id="line2744"
   style="stroke:#4c4c4c;stroke-width:0.6552;stroke-linecap:round"
   y2="266.41"
   x2="139.39"
   y1="260.79001"
   x1="133.31" />
<line
   id="line2746"
   style="stroke:#4c4c4c;stroke-width:0.6552;stroke-linecap:round"
   y2="260.79001"
   x2="133.31"
   y1="255.17999"
   x1="129.10001" />
<line
   id="line2748"
   style="stroke:#4c4c4c;stroke-width:0.6552;stroke-linecap:round"
   y2="255.17999"
   x2="129.10001"
   y1="252.74001"
   x1="127.79" />
<line
   id="line2750"
   style="stroke:#4c4c4c;stroke-width:0.6552;stroke-linecap:round"
   y2="252.74001"
   x2="127.79"
   y1="250.21001"
   x1="126.85" />
<line
   id="line2752"
   style="stroke:#4c4c4c;stroke-width:0.6552;stroke-linecap:round"
   y2="250.21001"
   x2="126.85"
   y1="247.78"
   x1="126.29" />
<line
   id="line2754"
   style="stroke:#4c4c4c;stroke-width:0.6552;stroke-linecap:round"
   y2="247.78"
   x2="126.29"
   y1="245.25"
   x1="126.19" />
<line
   id="line2756"
   style="stroke:#4c4c4c;stroke-width:0.6552;stroke-linecap:round"
   y2="245.25"
   x2="126.19"
   y1="242.45"
   x1="126.57" />
<line
   id="line2758"
   style="stroke:#4c4c4c;stroke-width:0.6552;stroke-linecap:round"
   y2="242.45"
   x2="126.57"
   y1="239.64"
   x1="127.41" />
<line
   id="line2760"
   style="stroke:#4c4c4c;stroke-width:0.6552;stroke-linecap:round"
   y2="239.64"
   x2="127.41"
   y1="236.83"
   x1="128.91" />
<line
   id="line2762"
   style="stroke:#4c4c4c;stroke-width:0.6552;stroke-linecap:round"
   y2="236.83"
   x2="128.91"
   y1="234.02"
   x1="130.88" />
<line
   id="line2764"
   style="stroke:#4c4c4c;stroke-width:0.6552;stroke-linecap:round"
   y2="234.02"
   x2="130.88"
   y1="228.5"
   x1="136.3" />
<line
   id="line2766"
   style="stroke:#4c4c4c;stroke-width:0.6552;stroke-linecap:round"
   y2="228.5"
   x2="136.3"
   y1="223.07001"
   x1="143.89" />
<line
   id="line2768"
   style="stroke:#4c4c4c;stroke-width:0.6552;stroke-linecap:round"
   y2="223.07001"
   x2="143.89"
   y1="212.03"
   x1="165.32001" />
<line
   id="line2770"
   style="stroke:#4c4c4c;stroke-width:0.6552;stroke-linecap:round"
   y2="212.03"
   x2="165.32001"
   y1="201.45"
   x1="193.12" />
<line
   id="line2772"
   style="stroke:#4c4c4c;stroke-width:0.6552;stroke-linecap:round"
   y2="201.45"
   x2="193.12"
   y1="196.3"
   x1="208.75" />
<line
   id="line2774"
   style="stroke:#4c4c4c;stroke-width:0.6552;stroke-linecap:round"
   y2="196.3"
   x2="208.75"
   y1="191.14999"
   x1="225.60001" />
<line
   id="line2776"
   style="stroke:#4c4c4c;stroke-width:0.6552;stroke-linecap:round"
   y2="191.14999"
   x2="225.60001"
   y1="185.63"
   x1="244.88" />
<line
   id="line2778"
   style="stroke:#4c4c4c;stroke-width:0.6552;stroke-linecap:round"
   y2="185.63"
   x2="244.88"
   y1="180.11"
   x1="265" />
<line
   id="line2780"
   style="stroke:#4c4c4c;stroke-width:0.6552;stroke-linecap:round"
   y2="180.11"
   x2="265"
   y1="174.49001"
   x1="285.78" />
<line
   id="line2782"
   style="stroke:#4c4c4c;stroke-width:0.6552;stroke-linecap:round"
   y2="174.49001"
   x2="285.78"
   y1="168.97"
   x1="306.94" />
<line
   id="line2784"
   style="stroke:#4c4c4c;stroke-width:0.6552;stroke-linecap:round"
   y2="168.97"
   x2="306.94"
   y1="163.45"
   x1="327.81" />
<line
   id="line2786"
   style="stroke:#4c4c4c;stroke-width:0.6552;stroke-linecap:round"
   y2="163.45"
   x2="327.81"
   y1="157.92999"
   x1="348.31" />
<line
   id="line2788"
   style="stroke:#4c4c4c;stroke-width:0.6552;stroke-linecap:round"
   y2="157.92999"
   x2="348.31"
   y1="152.96001"
   x1="365.89999" />
<line
   id="line2790"
   style="stroke:#4c4c4c;stroke-width:0.6552;stroke-linecap:round"
   y2="152.96001"
   x2="365.89999"
   y1="148.10001"
   x1="382.84" />
<line
   id="line2792"
   style="stroke:#4c4c4c;stroke-width:0.6552;stroke-linecap:round"
   y2="148.10001"
   x2="382.84"
   y1="145.2"
   x1="392.10999" />
<line
   id="line2794"
   style="stroke:#4c4c4c;stroke-width:0.6552;stroke-linecap:round"
   y2="145.2"
   x2="392.10999"
   y1="142.39"
   x1="401.10001" />
<line
   id="line2796"
   style="stroke:#4c4c4c;stroke-width:0.6552;stroke-linecap:round"
   y2="142.39"
   x2="401.10001"
   y1="140.98"
   x1="405.5" />
<line
   id="line2798"
   style="stroke:#4c4c4c;stroke-width:0.6552;stroke-linecap:round"
   y2="140.98"
   x2="405.5"
   y1="139.58"
   x1="409.70999" />
<line
   id="line2800"
   style="stroke:#4c4c4c;stroke-width:0.6552;stroke-linecap:round"
   y2="139.58"
   x2="409.70999"
   y1="138.83"
   x1="411.76999" />
<line
   id="line2802"
   style="stroke:#4c4c4c;stroke-width:0.6552;stroke-linecap:round"
   y2="138.83"
   x2="411.76999"
   y1="138.17999"
   x1="413.82999" />
<line
   id="line2804"
   style="stroke:#4c4c4c;stroke-width:0.6552;stroke-linecap:round"
   y2="138.17999"
   x2="413.82999"
   y1="137.8"
   x1="414.85999" />
<line
   id="line2806"
   style="stroke:#4c4c4c;stroke-width:0.6552;stroke-linecap:round"
   y2="137.8"
   x2="414.85999"
   y1="137.42999"
   x1="415.89001" />
<line
   id="line2808"
   style="stroke:#4c4c4c;stroke-width:0.6552;stroke-linecap:round"
   y2="137.42999"
   x2="415.89001"
   y1="137.14999"
   x1="416.91" />
<line
   id="line2810"
   style="stroke-width:0.6552;stroke-linecap:round"
   y2="136.77"
   x2="118.8"
   y1="136.77"
   x1="493.20001" />
<line
   id="line2812"
   style="stroke-width:0.28080001;stroke-linecap:round"
   y2="136.77"
   x2="486.09"
   y1="132.64999"
   x1="486.09" />
<line
   id="line2814"
   style="stroke-width:0.28080001;stroke-linecap:round"
   y2="136.77"
   x2="472.51999"
   y1="134.71001"
   x1="472.51999" />
<line
   id="line2816"
   style="stroke-width:0.28080001;stroke-linecap:round"
   y2="136.77"
   x2="458.85001"
   y1="134.71001"
   x1="458.85001" />
<line
   id="line2818"
   style="stroke-width:0.28080001;stroke-linecap:round"
   y2="136.77"
   x2="445.17999"
   y1="134.71001"
   x1="445.17999" />
<line
   id="line2820"
   style="stroke-width:0.28080001;stroke-linecap:round"
   y2="136.77"
   x2="431.51999"
   y1="134.71001"
   x1="431.51999" />
<line
   id="line2822"
   style="stroke-width:0.28080001;stroke-linecap:round"
   y2="136.77"
   x2="417.95001"
   y1="132.64999"
   x1="417.95001" />
<line
   id="line2824"
   style="stroke-width:0.28080001;stroke-linecap:round"
   y2="136.77"
   x2="404.28"
   y1="134.71001"
   x1="404.28" />
<line
   id="line2826"
   style="stroke-width:0.28080001;stroke-linecap:round"
   y2="136.77"
   x2="390.60999"
   y1="134.71001"
   x1="390.60999" />
<line
   id="line2828"
   style="stroke-width:0.28080001;stroke-linecap:round"
   y2="136.77"
   x2="377.04001"
   y1="134.71001"
   x1="377.04001" />
<line
   id="line2830"
   style="stroke-width:0.28080001;stroke-linecap:round"
   y2="136.77"
   x2="363.38"
   y1="134.71001"
   x1="363.38" />
<line
   id="line2832"
   style="stroke-width:0.28080001;stroke-linecap:round"
   y2="136.77"
   x2="349.70999"
   y1="132.64999"
   x1="349.70999" />
<line
   id="line2834"
   style="stroke-width:0.28080001;stroke-linecap:round"
   y2="136.77"
   x2="336.04999"
   y1="134.71001"
   x1="336.04999" />
<line
   id="line2836"
   style="stroke-width:0.28080001;stroke-linecap:round"
   y2="136.77"
   x2="322.47"
   y1="134.71001"
   x1="322.47" />
<line
   id="line2838"
   style="stroke-width:0.28080001;stroke-linecap:round"
   y2="136.77"
   x2="308.81"
   y1="134.71001"
   x1="308.81" />
<line
   id="line2840"
   style="stroke-width:0.28080001;stroke-linecap:round"
   y2="136.77"
   x2="295.14001"
   y1="134.71001"
   x1="295.14001" />
<line
   id="line2842"
   style="stroke-width:0.28080001;stroke-linecap:round"
   y2="136.77"
   x2="281.48001"
   y1="132.64999"
   x1="281.48001" />
<line
   id="line2844"
   style="stroke-width:0.28080001;stroke-linecap:round"
   y2="136.77"
   x2="267.91"
   y1="134.71001"
   x1="267.91" />
<line
   id="line2846"
   style="stroke-width:0.28080001;stroke-linecap:round"
   y2="136.77"
   x2="254.24001"
   y1="134.71001"
   x1="254.24001" />
<line
   id="line2848"
   style="stroke-width:0.28080001;stroke-linecap:round"
   y2="136.77"
   x2="240.57001"
   y1="134.71001"
   x1="240.57001" />
<line
   id="line2850"
   style="stroke-width:0.28080001;stroke-linecap:round"
   y2="136.77"
   x2="227"
   y1="134.71001"
   x1="227" />
<line
   id="line2852"
   style="stroke-width:0.28080001;stroke-linecap:round"
   y2="136.77"
   x2="213.34"
   y1="132.64999"
   x1="213.34" />
<line
   id="line2854"
   style="stroke-width:0.28080001;stroke-linecap:round"
   y2="136.77"
   x2="199.67"
   y1="134.71001"
   x1="199.67" />
<line
   id="line2856"
   style="stroke-width:0.28080001;stroke-linecap:round"
   y2="136.77"
   x2="186"
   y1="134.71001"
   x1="186" />
<line
   id="line2858"
   style="stroke-width:0.28080001;stroke-linecap:round"
   y2="136.77"
   x2="172.42999"
   y1="134.71001"
   x1="172.42999" />
<line
   id="line2860"
   style="stroke-width:0.28080001;stroke-linecap:round"
   y2="136.77"
   x2="158.77"
   y1="134.71001"
   x1="158.77" />
<line
   id="line2862"
   style="stroke-width:0.28080001;stroke-linecap:round"
   y2="136.77"
   x2="145.10001"
   y1="132.64999"
   x1="145.10001" />
<line
   id="line2864"
   style="stroke-width:0.28080001;stroke-linecap:round"
   y2="136.77"
   x2="131.53"
   y1="134.71001"
   x1="131.53" />
<line
   id="line2866"
   style="stroke-width:0.6552;stroke-linecap:round"
   y2="655.13"
   x2="486.09"
   y1="136.77"
   x1="486.09" />
<line
   id="line2868"
   style="stroke-width:0.28080001;stroke-linecap:round"
   y2="157.46001"
   x2="486.09"
   y1="157.46001"
   x1="487.67999" />
<line
   id="line2870"
   style="stroke-width:0.28080001;stroke-linecap:round"
   y2="178.23"
   x2="486.09"
   y1="178.23"
   x1="487.67999" />
<line
   id="line2872"
   style="stroke-width:0.28080001;stroke-linecap:round"
   y2="198.92"
   x2="486.09"
   y1="198.92"
   x1="487.67999" />
<line
   id="line2874"
   style="stroke-width:0.28080001;stroke-linecap:round"
   y2="219.7"
   x2="486.09"
   y1="219.7"
   x1="487.67999" />
<line
   id="line2876"
   style="stroke-width:0.28080001;stroke-linecap:round"
   y2="240.39"
   x2="486.09"
   y1="240.39"
   x1="489.17999" />
<line
   id="line2878"
   style="stroke-width:0.28080001;stroke-linecap:round"
   y2="261.16"
   x2="486.09"
   y1="261.16"
   x1="487.67999" />
<line
   id="line2880"
   style="stroke-width:0.28080001;stroke-linecap:round"
   y2="281.95001"
   x2="486.09"
   y1="281.95001"
   x1="487.67999" />
<line
   id="line2882"
   style="stroke-width:0.28080001;stroke-linecap:round"
   y2="302.63"
   x2="486.09"
   y1="302.63"
   x1="487.67999" />
<line
   id="line2884"
   style="stroke-width:0.28080001;stroke-linecap:round"
   y2="323.41"
   x2="486.09"
   y1="323.41"
   x1="487.67999" />
<line
   id="line2886"
   style="stroke-width:0.28080001;stroke-linecap:round"
   y2="344.09"
   x2="486.09"
   y1="344.09"
   x1="489.17999" />
<line
   id="line2888"
   style="stroke-width:0.28080001;stroke-linecap:round"
   y2="364.88"
   x2="486.09"
   y1="364.88"
   x1="487.67999" />
<line
   id="line2890"
   style="stroke-width:0.28080001;stroke-linecap:round"
   y2="385.56"
   x2="486.09"
   y1="385.56"
   x1="487.67999" />
<line
   id="line2892"
   style="stroke-width:0.28080001;stroke-linecap:round"
   y2="406.34"
   x2="486.09"
   y1="406.34"
   x1="487.67999" />
<line
   id="line2894"
   style="stroke-width:0.28080001;stroke-linecap:round"
   y2="427.01999"
   x2="486.09"
   y1="427.01999"
   x1="487.67999" />
<line
   id="line2896"
   style="stroke-width:0.28080001;stroke-linecap:round"
   y2="447.79999"
   x2="486.09"
   y1="447.79999"
   x1="489.17999" />
<line
   id="line2898"
   style="stroke-width:0.28080001;stroke-linecap:round"
   y2="468.48999"
   x2="486.09"
   y1="468.48999"
   x1="487.67999" />
<line
   id="line2900"
   style="stroke-width:0.28080001;stroke-linecap:round"
   y2="489.26999"
   x2="486.09"
   y1="489.26999"
   x1="487.67999" />
<line
   id="line2902"
   style="stroke-width:0.28080001;stroke-linecap:round"
   y2="509.95001"
   x2="486.09"
   y1="509.95001"
   x1="487.67999" />
<line
   id="line2904"
   style="stroke-width:0.28080001;stroke-linecap:round"
   y2="530.72998"
   x2="486.09"
   y1="530.72998"
   x1="487.67999" />
<line
   id="line2906"
   style="stroke-width:0.28080001;stroke-linecap:round"
   y2="551.51001"
   x2="486.09"
   y1="551.51001"
   x1="489.17999" />
<line
   id="line2908"
   style="stroke-width:0.28080001;stroke-linecap:round"
   y2="572.20001"
   x2="486.09"
   y1="572.20001"
   x1="487.67999" />
<line
   id="line2910"
   style="stroke-width:0.28080001;stroke-linecap:round"
   y2="592.97998"
   x2="486.09"
   y1="592.97998"
   x1="487.67999" />
<line
   id="line2912"
   style="stroke-width:0.28080001;stroke-linecap:round"
   y2="613.65997"
   x2="486.09"
   y1="613.65997"
   x1="487.67999" />
<line
   id="line2914"
   style="stroke-width:0.28080001;stroke-linecap:round"
   y2="634.44"
   x2="486.09"
   y1="634.44"
   x1="487.67999" />
<line
   id="line2916"
   style="stroke-width:0.28080001;stroke-linecap:round"
   y2="655.13"
   x2="486.09"
   y1="655.13"
   x1="489.17999" />
<text
   id="text2918"
   style="font-size:12.44900036px;fill:#000000;stroke:none"
   transform="matrix(0,1,1,0,495.73,123.95)">0</text>



<text
   id="text2920"
   style="font-size:12.44900036px;fill:#000000;stroke:none"
   transform="matrix(0,1,1,0,422.72,126.19)">1</text>



<text
   id="text2922"
   style="font-size:12.44900036px;fill:#000000;stroke:none"
   transform="matrix(0,1,1,0,354.48,123.95)">2</text>



<text
   id="text2924"
   style="font-size:12.44900036px;fill:#000000;stroke:none"
   transform="matrix(0,1,1,0,286.25,123.95)">3</text>



<text
   id="text2926"
   style="font-size:12.44900036px;fill:#000000;stroke:none"
   transform="matrix(0,1,1,0,218.11,123.76)">4</text>



<text
   id="text2928"
   style="font-size:12.44900036px;fill:#000000;stroke:none"
   transform="matrix(0,1,1,0,149.88,123.86)">5</text>



<text
   id="text2930"
   style="font-size:12.44900036px;fill:#000000;stroke:none"
   transform="matrix(0,1,1,0,500.12,236.93)">5</text>



<text
   id="text2932"
   style="font-size:12.44900036px;fill:#000000;stroke:none"
   transform="matrix(0,1,1,0,500.12,336.8)">10</text>



<text
   id="text2934"
   style="font-size:12.44900036px;fill:#000000;stroke:none"
   transform="matrix(0,1,1,0,500.12,440.5)">15</text>



<text
   id="text2936"
   style="font-size:12.44900036px;fill:#000000;stroke:none"
   transform="matrix(0,1,1,0,500.12,544.22)">20</text>



<text
   id="text2938"
   style="font-size:12.44900036px;fill:#000000;stroke:none"
   transform="matrix(0,1,1,0,500.12,647.83)">25</text>



<text
   id="text2940"
   style="font-size:12.44900036px;fill:#000000;stroke:none"
   transform="matrix(0,1,1,0,523.15,392.77)">x</text>



<polygon
   id="polygon2942"
   style="stroke-width:1.87199998;stroke-linejoin:round"
   points="539.06,72.938 72.938,72.938 72.938,719.06 539.06,719.06 539.06,72.938 " />
</g>    </g>
  </g>
</svg>
